%TF.GenerationSoftware,KiCad,Pcbnew,9.0.5*%
%TF.CreationDate,2026-01-29T03:49:21-08:00*%
%TF.ProjectId,PCB Design Lab,50434220-4465-4736-9967-6e204c61622e,rev?*%
%TF.SameCoordinates,Original*%
%TF.FileFunction,Legend,Top*%
%TF.FilePolarity,Positive*%
%FSLAX46Y46*%
G04 Gerber Fmt 4.6, Leading zero omitted, Abs format (unit mm)*
G04 Created by KiCad (PCBNEW 9.0.5) date 2026-01-29 03:49:21*
%MOMM*%
%LPD*%
G01*
G04 APERTURE LIST*
%ADD10C,0.150000*%
%ADD11C,0.127000*%
%ADD12C,0.200000*%
%ADD13C,0.120000*%
%ADD14C,0.100000*%
G04 APERTURE END LIST*
D10*
X114454819Y-90161904D02*
X115264342Y-90161904D01*
X115264342Y-90161904D02*
X115359580Y-90114285D01*
X115359580Y-90114285D02*
X115407200Y-90066666D01*
X115407200Y-90066666D02*
X115454819Y-89971428D01*
X115454819Y-89971428D02*
X115454819Y-89780952D01*
X115454819Y-89780952D02*
X115407200Y-89685714D01*
X115407200Y-89685714D02*
X115359580Y-89638095D01*
X115359580Y-89638095D02*
X115264342Y-89590476D01*
X115264342Y-89590476D02*
X114454819Y-89590476D01*
X115454819Y-88590476D02*
X115454819Y-89161904D01*
X115454819Y-88876190D02*
X114454819Y-88876190D01*
X114454819Y-88876190D02*
X114597676Y-88971428D01*
X114597676Y-88971428D02*
X114692914Y-89066666D01*
X114692914Y-89066666D02*
X114740533Y-89161904D01*
X113633333Y-86959580D02*
X113585714Y-87007200D01*
X113585714Y-87007200D02*
X113442857Y-87054819D01*
X113442857Y-87054819D02*
X113347619Y-87054819D01*
X113347619Y-87054819D02*
X113204762Y-87007200D01*
X113204762Y-87007200D02*
X113109524Y-86911961D01*
X113109524Y-86911961D02*
X113061905Y-86816723D01*
X113061905Y-86816723D02*
X113014286Y-86626247D01*
X113014286Y-86626247D02*
X113014286Y-86483390D01*
X113014286Y-86483390D02*
X113061905Y-86292914D01*
X113061905Y-86292914D02*
X113109524Y-86197676D01*
X113109524Y-86197676D02*
X113204762Y-86102438D01*
X113204762Y-86102438D02*
X113347619Y-86054819D01*
X113347619Y-86054819D02*
X113442857Y-86054819D01*
X113442857Y-86054819D02*
X113585714Y-86102438D01*
X113585714Y-86102438D02*
X113633333Y-86150057D01*
X114585714Y-87054819D02*
X114014286Y-87054819D01*
X114300000Y-87054819D02*
X114300000Y-86054819D01*
X114300000Y-86054819D02*
X114204762Y-86197676D01*
X114204762Y-86197676D02*
X114109524Y-86292914D01*
X114109524Y-86292914D02*
X114014286Y-86340533D01*
X117833333Y-102454819D02*
X117500000Y-101978628D01*
X117261905Y-102454819D02*
X117261905Y-101454819D01*
X117261905Y-101454819D02*
X117642857Y-101454819D01*
X117642857Y-101454819D02*
X117738095Y-101502438D01*
X117738095Y-101502438D02*
X117785714Y-101550057D01*
X117785714Y-101550057D02*
X117833333Y-101645295D01*
X117833333Y-101645295D02*
X117833333Y-101788152D01*
X117833333Y-101788152D02*
X117785714Y-101883390D01*
X117785714Y-101883390D02*
X117738095Y-101931009D01*
X117738095Y-101931009D02*
X117642857Y-101978628D01*
X117642857Y-101978628D02*
X117261905Y-101978628D01*
X118166667Y-101454819D02*
X118785714Y-101454819D01*
X118785714Y-101454819D02*
X118452381Y-101835771D01*
X118452381Y-101835771D02*
X118595238Y-101835771D01*
X118595238Y-101835771D02*
X118690476Y-101883390D01*
X118690476Y-101883390D02*
X118738095Y-101931009D01*
X118738095Y-101931009D02*
X118785714Y-102026247D01*
X118785714Y-102026247D02*
X118785714Y-102264342D01*
X118785714Y-102264342D02*
X118738095Y-102359580D01*
X118738095Y-102359580D02*
X118690476Y-102407200D01*
X118690476Y-102407200D02*
X118595238Y-102454819D01*
X118595238Y-102454819D02*
X118309524Y-102454819D01*
X118309524Y-102454819D02*
X118214286Y-102407200D01*
X118214286Y-102407200D02*
X118166667Y-102359580D01*
X121054819Y-87766666D02*
X120578628Y-88099999D01*
X121054819Y-88338094D02*
X120054819Y-88338094D01*
X120054819Y-88338094D02*
X120054819Y-87957142D01*
X120054819Y-87957142D02*
X120102438Y-87861904D01*
X120102438Y-87861904D02*
X120150057Y-87814285D01*
X120150057Y-87814285D02*
X120245295Y-87766666D01*
X120245295Y-87766666D02*
X120388152Y-87766666D01*
X120388152Y-87766666D02*
X120483390Y-87814285D01*
X120483390Y-87814285D02*
X120531009Y-87861904D01*
X120531009Y-87861904D02*
X120578628Y-87957142D01*
X120578628Y-87957142D02*
X120578628Y-88338094D01*
X121054819Y-86814285D02*
X121054819Y-87385713D01*
X121054819Y-87099999D02*
X120054819Y-87099999D01*
X120054819Y-87099999D02*
X120197676Y-87195237D01*
X120197676Y-87195237D02*
X120292914Y-87290475D01*
X120292914Y-87290475D02*
X120340533Y-87385713D01*
X114062295Y-97609523D02*
X114709914Y-97609523D01*
X114709914Y-97609523D02*
X114786104Y-97571428D01*
X114786104Y-97571428D02*
X114824200Y-97533333D01*
X114824200Y-97533333D02*
X114862295Y-97457142D01*
X114862295Y-97457142D02*
X114862295Y-97304761D01*
X114862295Y-97304761D02*
X114824200Y-97228571D01*
X114824200Y-97228571D02*
X114786104Y-97190476D01*
X114786104Y-97190476D02*
X114709914Y-97152380D01*
X114709914Y-97152380D02*
X114062295Y-97152380D01*
X114138485Y-96809524D02*
X114100390Y-96771428D01*
X114100390Y-96771428D02*
X114062295Y-96695238D01*
X114062295Y-96695238D02*
X114062295Y-96504762D01*
X114062295Y-96504762D02*
X114100390Y-96428571D01*
X114100390Y-96428571D02*
X114138485Y-96390476D01*
X114138485Y-96390476D02*
X114214676Y-96352381D01*
X114214676Y-96352381D02*
X114290866Y-96352381D01*
X114290866Y-96352381D02*
X114405152Y-96390476D01*
X114405152Y-96390476D02*
X114862295Y-96847619D01*
X114862295Y-96847619D02*
X114862295Y-96352381D01*
X121199580Y-100666666D02*
X121247200Y-100714285D01*
X121247200Y-100714285D02*
X121294819Y-100857142D01*
X121294819Y-100857142D02*
X121294819Y-100952380D01*
X121294819Y-100952380D02*
X121247200Y-101095237D01*
X121247200Y-101095237D02*
X121151961Y-101190475D01*
X121151961Y-101190475D02*
X121056723Y-101238094D01*
X121056723Y-101238094D02*
X120866247Y-101285713D01*
X120866247Y-101285713D02*
X120723390Y-101285713D01*
X120723390Y-101285713D02*
X120532914Y-101238094D01*
X120532914Y-101238094D02*
X120437676Y-101190475D01*
X120437676Y-101190475D02*
X120342438Y-101095237D01*
X120342438Y-101095237D02*
X120294819Y-100952380D01*
X120294819Y-100952380D02*
X120294819Y-100857142D01*
X120294819Y-100857142D02*
X120342438Y-100714285D01*
X120342438Y-100714285D02*
X120390057Y-100666666D01*
X120390057Y-100285713D02*
X120342438Y-100238094D01*
X120342438Y-100238094D02*
X120294819Y-100142856D01*
X120294819Y-100142856D02*
X120294819Y-99904761D01*
X120294819Y-99904761D02*
X120342438Y-99809523D01*
X120342438Y-99809523D02*
X120390057Y-99761904D01*
X120390057Y-99761904D02*
X120485295Y-99714285D01*
X120485295Y-99714285D02*
X120580533Y-99714285D01*
X120580533Y-99714285D02*
X120723390Y-99761904D01*
X120723390Y-99761904D02*
X121294819Y-100333332D01*
X121294819Y-100333332D02*
X121294819Y-99714285D01*
X111166666Y-103954819D02*
X111166666Y-104669104D01*
X111166666Y-104669104D02*
X111119047Y-104811961D01*
X111119047Y-104811961D02*
X111023809Y-104907200D01*
X111023809Y-104907200D02*
X110880952Y-104954819D01*
X110880952Y-104954819D02*
X110785714Y-104954819D01*
X112166666Y-104954819D02*
X111595238Y-104954819D01*
X111880952Y-104954819D02*
X111880952Y-103954819D01*
X111880952Y-103954819D02*
X111785714Y-104097676D01*
X111785714Y-104097676D02*
X111690476Y-104192914D01*
X111690476Y-104192914D02*
X111595238Y-104240533D01*
X111859580Y-94166666D02*
X111907200Y-94214285D01*
X111907200Y-94214285D02*
X111954819Y-94357142D01*
X111954819Y-94357142D02*
X111954819Y-94452380D01*
X111954819Y-94452380D02*
X111907200Y-94595237D01*
X111907200Y-94595237D02*
X111811961Y-94690475D01*
X111811961Y-94690475D02*
X111716723Y-94738094D01*
X111716723Y-94738094D02*
X111526247Y-94785713D01*
X111526247Y-94785713D02*
X111383390Y-94785713D01*
X111383390Y-94785713D02*
X111192914Y-94738094D01*
X111192914Y-94738094D02*
X111097676Y-94690475D01*
X111097676Y-94690475D02*
X111002438Y-94595237D01*
X111002438Y-94595237D02*
X110954819Y-94452380D01*
X110954819Y-94452380D02*
X110954819Y-94357142D01*
X110954819Y-94357142D02*
X111002438Y-94214285D01*
X111002438Y-94214285D02*
X111050057Y-94166666D01*
X110954819Y-93309523D02*
X110954819Y-93499999D01*
X110954819Y-93499999D02*
X111002438Y-93595237D01*
X111002438Y-93595237D02*
X111050057Y-93642856D01*
X111050057Y-93642856D02*
X111192914Y-93738094D01*
X111192914Y-93738094D02*
X111383390Y-93785713D01*
X111383390Y-93785713D02*
X111764342Y-93785713D01*
X111764342Y-93785713D02*
X111859580Y-93738094D01*
X111859580Y-93738094D02*
X111907200Y-93690475D01*
X111907200Y-93690475D02*
X111954819Y-93595237D01*
X111954819Y-93595237D02*
X111954819Y-93404761D01*
X111954819Y-93404761D02*
X111907200Y-93309523D01*
X111907200Y-93309523D02*
X111859580Y-93261904D01*
X111859580Y-93261904D02*
X111764342Y-93214285D01*
X111764342Y-93214285D02*
X111526247Y-93214285D01*
X111526247Y-93214285D02*
X111431009Y-93261904D01*
X111431009Y-93261904D02*
X111383390Y-93309523D01*
X111383390Y-93309523D02*
X111335771Y-93404761D01*
X111335771Y-93404761D02*
X111335771Y-93595237D01*
X111335771Y-93595237D02*
X111383390Y-93690475D01*
X111383390Y-93690475D02*
X111431009Y-93738094D01*
X111431009Y-93738094D02*
X111526247Y-93785713D01*
X113859580Y-94166666D02*
X113907200Y-94214285D01*
X113907200Y-94214285D02*
X113954819Y-94357142D01*
X113954819Y-94357142D02*
X113954819Y-94452380D01*
X113954819Y-94452380D02*
X113907200Y-94595237D01*
X113907200Y-94595237D02*
X113811961Y-94690475D01*
X113811961Y-94690475D02*
X113716723Y-94738094D01*
X113716723Y-94738094D02*
X113526247Y-94785713D01*
X113526247Y-94785713D02*
X113383390Y-94785713D01*
X113383390Y-94785713D02*
X113192914Y-94738094D01*
X113192914Y-94738094D02*
X113097676Y-94690475D01*
X113097676Y-94690475D02*
X113002438Y-94595237D01*
X113002438Y-94595237D02*
X112954819Y-94452380D01*
X112954819Y-94452380D02*
X112954819Y-94357142D01*
X112954819Y-94357142D02*
X113002438Y-94214285D01*
X113002438Y-94214285D02*
X113050057Y-94166666D01*
X112954819Y-93261904D02*
X112954819Y-93738094D01*
X112954819Y-93738094D02*
X113431009Y-93785713D01*
X113431009Y-93785713D02*
X113383390Y-93738094D01*
X113383390Y-93738094D02*
X113335771Y-93642856D01*
X113335771Y-93642856D02*
X113335771Y-93404761D01*
X113335771Y-93404761D02*
X113383390Y-93309523D01*
X113383390Y-93309523D02*
X113431009Y-93261904D01*
X113431009Y-93261904D02*
X113526247Y-93214285D01*
X113526247Y-93214285D02*
X113764342Y-93214285D01*
X113764342Y-93214285D02*
X113859580Y-93261904D01*
X113859580Y-93261904D02*
X113907200Y-93309523D01*
X113907200Y-93309523D02*
X113954819Y-93404761D01*
X113954819Y-93404761D02*
X113954819Y-93642856D01*
X113954819Y-93642856D02*
X113907200Y-93738094D01*
X113907200Y-93738094D02*
X113859580Y-93785713D01*
X121284819Y-97310594D02*
X120284819Y-97310594D01*
X120284819Y-97310594D02*
X120284819Y-97072499D01*
X120284819Y-97072499D02*
X120332438Y-96929642D01*
X120332438Y-96929642D02*
X120427676Y-96834404D01*
X120427676Y-96834404D02*
X120522914Y-96786785D01*
X120522914Y-96786785D02*
X120713390Y-96739166D01*
X120713390Y-96739166D02*
X120856247Y-96739166D01*
X120856247Y-96739166D02*
X121046723Y-96786785D01*
X121046723Y-96786785D02*
X121141961Y-96834404D01*
X121141961Y-96834404D02*
X121237200Y-96929642D01*
X121237200Y-96929642D02*
X121284819Y-97072499D01*
X121284819Y-97072499D02*
X121284819Y-97310594D01*
X121284819Y-95786785D02*
X121284819Y-96358213D01*
X121284819Y-96072499D02*
X120284819Y-96072499D01*
X120284819Y-96072499D02*
X120427676Y-96167737D01*
X120427676Y-96167737D02*
X120522914Y-96262975D01*
X120522914Y-96262975D02*
X120570533Y-96358213D01*
X116333333Y-86954819D02*
X116000000Y-86478628D01*
X115761905Y-86954819D02*
X115761905Y-85954819D01*
X115761905Y-85954819D02*
X116142857Y-85954819D01*
X116142857Y-85954819D02*
X116238095Y-86002438D01*
X116238095Y-86002438D02*
X116285714Y-86050057D01*
X116285714Y-86050057D02*
X116333333Y-86145295D01*
X116333333Y-86145295D02*
X116333333Y-86288152D01*
X116333333Y-86288152D02*
X116285714Y-86383390D01*
X116285714Y-86383390D02*
X116238095Y-86431009D01*
X116238095Y-86431009D02*
X116142857Y-86478628D01*
X116142857Y-86478628D02*
X115761905Y-86478628D01*
X116714286Y-86050057D02*
X116761905Y-86002438D01*
X116761905Y-86002438D02*
X116857143Y-85954819D01*
X116857143Y-85954819D02*
X117095238Y-85954819D01*
X117095238Y-85954819D02*
X117190476Y-86002438D01*
X117190476Y-86002438D02*
X117238095Y-86050057D01*
X117238095Y-86050057D02*
X117285714Y-86145295D01*
X117285714Y-86145295D02*
X117285714Y-86240533D01*
X117285714Y-86240533D02*
X117238095Y-86383390D01*
X117238095Y-86383390D02*
X116666667Y-86954819D01*
X116666667Y-86954819D02*
X117285714Y-86954819D01*
X120359580Y-92166666D02*
X120407200Y-92214285D01*
X120407200Y-92214285D02*
X120454819Y-92357142D01*
X120454819Y-92357142D02*
X120454819Y-92452380D01*
X120454819Y-92452380D02*
X120407200Y-92595237D01*
X120407200Y-92595237D02*
X120311961Y-92690475D01*
X120311961Y-92690475D02*
X120216723Y-92738094D01*
X120216723Y-92738094D02*
X120026247Y-92785713D01*
X120026247Y-92785713D02*
X119883390Y-92785713D01*
X119883390Y-92785713D02*
X119692914Y-92738094D01*
X119692914Y-92738094D02*
X119597676Y-92690475D01*
X119597676Y-92690475D02*
X119502438Y-92595237D01*
X119502438Y-92595237D02*
X119454819Y-92452380D01*
X119454819Y-92452380D02*
X119454819Y-92357142D01*
X119454819Y-92357142D02*
X119502438Y-92214285D01*
X119502438Y-92214285D02*
X119550057Y-92166666D01*
X119788152Y-91309523D02*
X120454819Y-91309523D01*
X119407200Y-91547618D02*
X120121485Y-91785713D01*
X120121485Y-91785713D02*
X120121485Y-91166666D01*
X123624819Y-92666666D02*
X123148628Y-92999999D01*
X123624819Y-93238094D02*
X122624819Y-93238094D01*
X122624819Y-93238094D02*
X122624819Y-92857142D01*
X122624819Y-92857142D02*
X122672438Y-92761904D01*
X122672438Y-92761904D02*
X122720057Y-92714285D01*
X122720057Y-92714285D02*
X122815295Y-92666666D01*
X122815295Y-92666666D02*
X122958152Y-92666666D01*
X122958152Y-92666666D02*
X123053390Y-92714285D01*
X123053390Y-92714285D02*
X123101009Y-92761904D01*
X123101009Y-92761904D02*
X123148628Y-92857142D01*
X123148628Y-92857142D02*
X123148628Y-93238094D01*
X122624819Y-91761904D02*
X122624819Y-92238094D01*
X122624819Y-92238094D02*
X123101009Y-92285713D01*
X123101009Y-92285713D02*
X123053390Y-92238094D01*
X123053390Y-92238094D02*
X123005771Y-92142856D01*
X123005771Y-92142856D02*
X123005771Y-91904761D01*
X123005771Y-91904761D02*
X123053390Y-91809523D01*
X123053390Y-91809523D02*
X123101009Y-91761904D01*
X123101009Y-91761904D02*
X123196247Y-91714285D01*
X123196247Y-91714285D02*
X123434342Y-91714285D01*
X123434342Y-91714285D02*
X123529580Y-91761904D01*
X123529580Y-91761904D02*
X123577200Y-91809523D01*
X123577200Y-91809523D02*
X123624819Y-91904761D01*
X123624819Y-91904761D02*
X123624819Y-92142856D01*
X123624819Y-92142856D02*
X123577200Y-92238094D01*
X123577200Y-92238094D02*
X123529580Y-92285713D01*
X111699580Y-100734166D02*
X111747200Y-100781785D01*
X111747200Y-100781785D02*
X111794819Y-100924642D01*
X111794819Y-100924642D02*
X111794819Y-101019880D01*
X111794819Y-101019880D02*
X111747200Y-101162737D01*
X111747200Y-101162737D02*
X111651961Y-101257975D01*
X111651961Y-101257975D02*
X111556723Y-101305594D01*
X111556723Y-101305594D02*
X111366247Y-101353213D01*
X111366247Y-101353213D02*
X111223390Y-101353213D01*
X111223390Y-101353213D02*
X111032914Y-101305594D01*
X111032914Y-101305594D02*
X110937676Y-101257975D01*
X110937676Y-101257975D02*
X110842438Y-101162737D01*
X110842438Y-101162737D02*
X110794819Y-101019880D01*
X110794819Y-101019880D02*
X110794819Y-100924642D01*
X110794819Y-100924642D02*
X110842438Y-100781785D01*
X110842438Y-100781785D02*
X110890057Y-100734166D01*
X110794819Y-100400832D02*
X110794819Y-99781785D01*
X110794819Y-99781785D02*
X111175771Y-100115118D01*
X111175771Y-100115118D02*
X111175771Y-99972261D01*
X111175771Y-99972261D02*
X111223390Y-99877023D01*
X111223390Y-99877023D02*
X111271009Y-99829404D01*
X111271009Y-99829404D02*
X111366247Y-99781785D01*
X111366247Y-99781785D02*
X111604342Y-99781785D01*
X111604342Y-99781785D02*
X111699580Y-99829404D01*
X111699580Y-99829404D02*
X111747200Y-99877023D01*
X111747200Y-99877023D02*
X111794819Y-99972261D01*
X111794819Y-99972261D02*
X111794819Y-100257975D01*
X111794819Y-100257975D02*
X111747200Y-100353213D01*
X111747200Y-100353213D02*
X111699580Y-100400832D01*
X114333333Y-102454819D02*
X114000000Y-101978628D01*
X113761905Y-102454819D02*
X113761905Y-101454819D01*
X113761905Y-101454819D02*
X114142857Y-101454819D01*
X114142857Y-101454819D02*
X114238095Y-101502438D01*
X114238095Y-101502438D02*
X114285714Y-101550057D01*
X114285714Y-101550057D02*
X114333333Y-101645295D01*
X114333333Y-101645295D02*
X114333333Y-101788152D01*
X114333333Y-101788152D02*
X114285714Y-101883390D01*
X114285714Y-101883390D02*
X114238095Y-101931009D01*
X114238095Y-101931009D02*
X114142857Y-101978628D01*
X114142857Y-101978628D02*
X113761905Y-101978628D01*
X115190476Y-101788152D02*
X115190476Y-102454819D01*
X114952381Y-101407200D02*
X114714286Y-102121485D01*
X114714286Y-102121485D02*
X115333333Y-102121485D01*
D11*
%TO.C,U1*%
X115490000Y-90945000D02*
X115490000Y-92545000D01*
X118610000Y-92545000D02*
X118610000Y-90945000D01*
D12*
X116200000Y-94245000D02*
G75*
G02*
X116000000Y-94245000I-100000J0D01*
G01*
X116000000Y-94245000D02*
G75*
G02*
X116200000Y-94245000I100000J0D01*
G01*
D13*
%TO.C,C1*%
X113884165Y-87640000D02*
X114115835Y-87640000D01*
X113884165Y-88360000D02*
X114115835Y-88360000D01*
%TO.C,R3*%
X118832379Y-100120000D02*
X119167621Y-100120000D01*
X118832379Y-100880000D02*
X119167621Y-100880000D01*
%TO.C,R1*%
X121620000Y-87667621D02*
X121620000Y-87332379D01*
X122380000Y-87667621D02*
X122380000Y-87332379D01*
D11*
%TO.C,U2*%
X116510000Y-95610000D02*
X115950000Y-95610000D01*
X116510000Y-98210000D02*
X115950000Y-98210000D01*
X118490000Y-98210000D02*
X119050000Y-98210000D01*
X119050000Y-95610000D02*
X118490000Y-95610000D01*
D12*
X119690000Y-97905000D02*
G75*
G02*
X119490000Y-97905000I-100000J0D01*
G01*
X119490000Y-97905000D02*
G75*
G02*
X119690000Y-97905000I100000J0D01*
G01*
D13*
%TO.C,C2*%
X121640000Y-100615835D02*
X121640000Y-100384165D01*
X122360000Y-100615835D02*
X122360000Y-100384165D01*
%TO.C,J1*%
X112630000Y-103170000D02*
X113960000Y-103170000D01*
X112630000Y-104500000D02*
X112630000Y-103170000D01*
X115230000Y-103170000D02*
X122910000Y-103170000D01*
X115230000Y-105830000D02*
X115230000Y-103170000D01*
X115230000Y-105830000D02*
X122910000Y-105830000D01*
X122910000Y-105830000D02*
X122910000Y-103170000D01*
%TO.C,C6*%
X111140000Y-92183335D02*
X111140000Y-91951665D01*
X111860000Y-92183335D02*
X111860000Y-91951665D01*
%TO.C,C5*%
X113140000Y-92048335D02*
X113140000Y-91816665D01*
X113860000Y-92048335D02*
X113860000Y-91816665D01*
D14*
%TO.C,D1*%
X122050000Y-97837500D02*
G75*
G02*
X121950000Y-97837500I-50000J0D01*
G01*
X121950000Y-97837500D02*
G75*
G02*
X122050000Y-97837500I50000J0D01*
G01*
D13*
%TO.C,R2*%
X117332379Y-87620000D02*
X117667621Y-87620000D01*
X117332379Y-88380000D02*
X117667621Y-88380000D01*
%TO.C,C4*%
X119640000Y-90115835D02*
X119640000Y-89884165D01*
X120360000Y-90115835D02*
X120360000Y-89884165D01*
%TO.C,R5*%
X121620000Y-92332379D02*
X121620000Y-92667621D01*
X122380000Y-92332379D02*
X122380000Y-92667621D01*
%TO.C,C3*%
X112140000Y-100683335D02*
X112140000Y-100451665D01*
X112860000Y-100683335D02*
X112860000Y-100451665D01*
%TO.C,R4*%
X115734879Y-100120000D02*
X116070121Y-100120000D01*
X115734879Y-100880000D02*
X116070121Y-100880000D01*
%TD*%
M02*
