%TF.GenerationSoftware,KiCad,Pcbnew,9.0.5*%
%TF.CreationDate,2026-01-29T03:49:21-08:00*%
%TF.ProjectId,PCB Design Lab,50434220-4465-4736-9967-6e204c61622e,rev?*%
%TF.SameCoordinates,Original*%
%TF.FileFunction,Copper,L2,Bot*%
%TF.FilePolarity,Positive*%
%FSLAX46Y46*%
G04 Gerber Fmt 4.6, Leading zero omitted, Abs format (unit mm)*
G04 Created by KiCad (PCBNEW 9.0.5) date 2026-01-29 03:49:21*
%MOMM*%
%LPD*%
G01*
G04 APERTURE LIST*
%TA.AperFunction,ComponentPad*%
%ADD10R,1.700000X1.700000*%
%TD*%
%TA.AperFunction,ComponentPad*%
%ADD11C,1.700000*%
%TD*%
%TA.AperFunction,ViaPad*%
%ADD12C,0.508000*%
%TD*%
%TA.AperFunction,Conductor*%
%ADD13C,0.200000*%
%TD*%
%TA.AperFunction,Conductor*%
%ADD14C,0.254000*%
%TD*%
G04 APERTURE END LIST*
D10*
%TO.P,J1,1,Pin_1*%
%TO.N,VCC*%
X113960000Y-104500000D03*
D11*
%TO.P,J1,2,Pin_2*%
%TO.N,/SDA*%
X116500000Y-104500000D03*
%TO.P,J1,3,Pin_3*%
%TO.N,/SCL*%
X119040000Y-104500000D03*
%TO.P,J1,4,Pin_4*%
%TO.N,GND*%
X121580000Y-104500000D03*
%TD*%
D12*
%TO.N,+3V3*%
X114986056Y-94581000D03*
X115500000Y-102000000D03*
X119000000Y-102000000D03*
X121000000Y-102000000D03*
X117500000Y-102000000D03*
X114500000Y-93000000D03*
%TO.N,GND*%
X117050000Y-93000000D03*
X117099002Y-96000000D03*
%TO.N,/SCL*%
X116839170Y-98839170D03*
X119500000Y-99500000D03*
%TD*%
D13*
%TO.N,+3V3*%
X114986056Y-93486056D02*
X114500000Y-93000000D01*
X114986056Y-94581000D02*
X114986056Y-93486056D01*
D14*
X121000000Y-102000000D02*
X119000000Y-102000000D01*
X117500000Y-102000000D02*
X115500000Y-102000000D01*
D13*
%TO.N,GND*%
X117099002Y-96000000D02*
X117000000Y-96000000D01*
X117000000Y-96000000D02*
X117050000Y-95950000D01*
D14*
%TO.N,/SCL*%
X119500000Y-99500000D02*
X117500000Y-99500000D01*
X117500000Y-99500000D02*
X116839170Y-98839170D01*
%TD*%
%TA.AperFunction,Conductor*%
%TO.N,GND*%
G36*
X123004418Y-85500816D02*
G01*
X123204561Y-85515130D01*
X123222063Y-85517647D01*
X123413797Y-85559355D01*
X123430755Y-85564334D01*
X123614609Y-85632909D01*
X123630701Y-85640259D01*
X123802904Y-85734288D01*
X123817784Y-85743849D01*
X123974867Y-85861441D01*
X123988237Y-85873027D01*
X124126972Y-86011762D01*
X124138558Y-86025132D01*
X124256146Y-86182210D01*
X124265711Y-86197095D01*
X124359740Y-86369298D01*
X124367090Y-86385390D01*
X124435662Y-86569236D01*
X124440646Y-86586212D01*
X124482351Y-86777931D01*
X124484869Y-86795442D01*
X124499184Y-86995580D01*
X124499500Y-87004427D01*
X124499500Y-105495572D01*
X124499184Y-105504419D01*
X124484869Y-105704557D01*
X124482351Y-105722068D01*
X124440646Y-105913787D01*
X124435662Y-105930763D01*
X124367090Y-106114609D01*
X124359740Y-106130701D01*
X124265711Y-106302904D01*
X124256146Y-106317789D01*
X124138558Y-106474867D01*
X124126972Y-106488237D01*
X123988237Y-106626972D01*
X123974867Y-106638558D01*
X123817789Y-106756146D01*
X123802904Y-106765711D01*
X123630701Y-106859740D01*
X123614609Y-106867090D01*
X123430763Y-106935662D01*
X123413787Y-106940646D01*
X123222068Y-106982351D01*
X123204557Y-106984869D01*
X123023779Y-106997799D01*
X123004417Y-106999184D01*
X122995572Y-106999500D01*
X112004428Y-106999500D01*
X111995582Y-106999184D01*
X111973622Y-106997613D01*
X111795442Y-106984869D01*
X111777931Y-106982351D01*
X111586212Y-106940646D01*
X111569236Y-106935662D01*
X111385390Y-106867090D01*
X111369298Y-106859740D01*
X111197095Y-106765711D01*
X111182210Y-106756146D01*
X111025132Y-106638558D01*
X111011762Y-106626972D01*
X110873027Y-106488237D01*
X110861441Y-106474867D01*
X110743849Y-106317784D01*
X110734288Y-106302904D01*
X110640259Y-106130701D01*
X110632909Y-106114609D01*
X110572091Y-105951551D01*
X110564334Y-105930755D01*
X110559355Y-105913797D01*
X110517647Y-105722063D01*
X110515130Y-105704556D01*
X110511589Y-105655051D01*
X110500816Y-105504418D01*
X110500500Y-105495572D01*
X110500500Y-103602135D01*
X112609500Y-103602135D01*
X112609500Y-105397870D01*
X112609501Y-105397876D01*
X112615908Y-105457483D01*
X112666202Y-105592328D01*
X112666206Y-105592335D01*
X112752452Y-105707544D01*
X112752455Y-105707547D01*
X112867664Y-105793793D01*
X112867671Y-105793797D01*
X113002517Y-105844091D01*
X113002516Y-105844091D01*
X113009444Y-105844835D01*
X113062127Y-105850500D01*
X114857872Y-105850499D01*
X114917483Y-105844091D01*
X115052331Y-105793796D01*
X115167546Y-105707546D01*
X115253796Y-105592331D01*
X115302810Y-105460916D01*
X115344681Y-105404984D01*
X115410145Y-105380566D01*
X115478418Y-105395417D01*
X115506673Y-105416569D01*
X115620213Y-105530109D01*
X115792179Y-105655048D01*
X115792181Y-105655049D01*
X115792184Y-105655051D01*
X115981588Y-105751557D01*
X116183757Y-105817246D01*
X116393713Y-105850500D01*
X116393714Y-105850500D01*
X116606286Y-105850500D01*
X116606287Y-105850500D01*
X116816243Y-105817246D01*
X117018412Y-105751557D01*
X117207816Y-105655051D01*
X117294138Y-105592335D01*
X117379786Y-105530109D01*
X117379788Y-105530106D01*
X117379792Y-105530104D01*
X117530104Y-105379792D01*
X117530106Y-105379788D01*
X117530109Y-105379786D01*
X117655048Y-105207820D01*
X117655047Y-105207820D01*
X117655051Y-105207816D01*
X117659514Y-105199054D01*
X117707488Y-105148259D01*
X117775308Y-105131463D01*
X117841444Y-105153999D01*
X117880486Y-105199056D01*
X117884951Y-105207820D01*
X118009890Y-105379786D01*
X118160213Y-105530109D01*
X118332179Y-105655048D01*
X118332181Y-105655049D01*
X118332184Y-105655051D01*
X118521588Y-105751557D01*
X118723757Y-105817246D01*
X118933713Y-105850500D01*
X118933714Y-105850500D01*
X119146286Y-105850500D01*
X119146287Y-105850500D01*
X119356243Y-105817246D01*
X119558412Y-105751557D01*
X119747816Y-105655051D01*
X119834138Y-105592335D01*
X119919786Y-105530109D01*
X119919788Y-105530106D01*
X119919792Y-105530104D01*
X120070104Y-105379792D01*
X120070106Y-105379788D01*
X120070109Y-105379786D01*
X120155890Y-105261717D01*
X120195051Y-105207816D01*
X120199793Y-105198508D01*
X120247763Y-105147711D01*
X120315583Y-105130911D01*
X120381719Y-105153445D01*
X120420763Y-105198500D01*
X120425373Y-105207547D01*
X120464728Y-105261716D01*
X121097036Y-104629407D01*
X121114075Y-104692993D01*
X121179901Y-104807007D01*
X121272993Y-104900099D01*
X121387007Y-104965925D01*
X121450590Y-104982962D01*
X120818282Y-105615269D01*
X120818282Y-105615270D01*
X120872449Y-105654624D01*
X121061782Y-105751095D01*
X121263870Y-105816757D01*
X121473754Y-105850000D01*
X121686246Y-105850000D01*
X121896127Y-105816757D01*
X121896130Y-105816757D01*
X122098217Y-105751095D01*
X122287554Y-105654622D01*
X122341716Y-105615270D01*
X122341717Y-105615270D01*
X121709408Y-104982962D01*
X121772993Y-104965925D01*
X121887007Y-104900099D01*
X121980099Y-104807007D01*
X122045925Y-104692993D01*
X122062962Y-104629408D01*
X122695270Y-105261717D01*
X122695270Y-105261716D01*
X122734622Y-105207554D01*
X122831095Y-105018217D01*
X122896757Y-104816130D01*
X122896757Y-104816127D01*
X122930000Y-104606246D01*
X122930000Y-104393753D01*
X122896757Y-104183872D01*
X122896757Y-104183869D01*
X122831095Y-103981782D01*
X122734624Y-103792449D01*
X122695270Y-103738282D01*
X122695269Y-103738282D01*
X122062962Y-104370590D01*
X122045925Y-104307007D01*
X121980099Y-104192993D01*
X121887007Y-104099901D01*
X121772993Y-104034075D01*
X121709409Y-104017037D01*
X122341716Y-103384728D01*
X122287550Y-103345375D01*
X122098217Y-103248904D01*
X121896129Y-103183242D01*
X121686246Y-103150000D01*
X121473754Y-103150000D01*
X121263872Y-103183242D01*
X121263869Y-103183242D01*
X121061782Y-103248904D01*
X120872439Y-103345380D01*
X120818282Y-103384727D01*
X120818282Y-103384728D01*
X121450591Y-104017037D01*
X121387007Y-104034075D01*
X121272993Y-104099901D01*
X121179901Y-104192993D01*
X121114075Y-104307007D01*
X121097037Y-104370591D01*
X120464728Y-103738282D01*
X120464727Y-103738282D01*
X120425380Y-103792440D01*
X120425376Y-103792446D01*
X120420760Y-103801505D01*
X120372781Y-103852297D01*
X120304959Y-103869087D01*
X120238826Y-103846543D01*
X120199794Y-103801493D01*
X120195051Y-103792184D01*
X120195049Y-103792181D01*
X120195048Y-103792179D01*
X120070109Y-103620213D01*
X119919786Y-103469890D01*
X119747820Y-103344951D01*
X119558414Y-103248444D01*
X119558413Y-103248443D01*
X119558412Y-103248443D01*
X119356243Y-103182754D01*
X119356241Y-103182753D01*
X119356240Y-103182753D01*
X119194957Y-103157208D01*
X119146287Y-103149500D01*
X118933713Y-103149500D01*
X118885042Y-103157208D01*
X118723760Y-103182753D01*
X118521585Y-103248444D01*
X118332179Y-103344951D01*
X118160213Y-103469890D01*
X118009890Y-103620213D01*
X117884949Y-103792182D01*
X117880484Y-103800946D01*
X117832509Y-103851742D01*
X117764688Y-103868536D01*
X117698553Y-103845998D01*
X117659516Y-103800946D01*
X117655050Y-103792182D01*
X117530109Y-103620213D01*
X117379786Y-103469890D01*
X117207820Y-103344951D01*
X117018414Y-103248444D01*
X117018413Y-103248443D01*
X117018412Y-103248443D01*
X116816243Y-103182754D01*
X116816241Y-103182753D01*
X116816240Y-103182753D01*
X116654957Y-103157208D01*
X116606287Y-103149500D01*
X116393713Y-103149500D01*
X116345042Y-103157208D01*
X116183760Y-103182753D01*
X115981585Y-103248444D01*
X115792179Y-103344951D01*
X115620215Y-103469889D01*
X115506673Y-103583431D01*
X115445350Y-103616915D01*
X115375658Y-103611931D01*
X115319725Y-103570059D01*
X115302810Y-103539082D01*
X115253797Y-103407671D01*
X115253793Y-103407664D01*
X115167547Y-103292455D01*
X115167544Y-103292452D01*
X115052335Y-103206206D01*
X115052328Y-103206202D01*
X114917482Y-103155908D01*
X114917483Y-103155908D01*
X114857883Y-103149501D01*
X114857881Y-103149500D01*
X114857873Y-103149500D01*
X114857864Y-103149500D01*
X113062129Y-103149500D01*
X113062123Y-103149501D01*
X113002516Y-103155908D01*
X112867671Y-103206202D01*
X112867664Y-103206206D01*
X112752455Y-103292452D01*
X112752452Y-103292455D01*
X112666206Y-103407664D01*
X112666202Y-103407671D01*
X112615908Y-103542517D01*
X112609501Y-103602116D01*
X112609500Y-103602135D01*
X110500500Y-103602135D01*
X110500500Y-101925683D01*
X114745500Y-101925683D01*
X114745500Y-102074316D01*
X114774493Y-102220072D01*
X114774495Y-102220080D01*
X114831371Y-102357391D01*
X114913939Y-102480964D01*
X114913945Y-102480971D01*
X115019028Y-102586054D01*
X115019035Y-102586060D01*
X115142608Y-102668628D01*
X115142609Y-102668628D01*
X115142610Y-102668629D01*
X115279920Y-102725505D01*
X115425683Y-102754499D01*
X115425687Y-102754500D01*
X115425688Y-102754500D01*
X115574313Y-102754500D01*
X115574314Y-102754499D01*
X115720080Y-102725505D01*
X115857390Y-102668629D01*
X115866634Y-102662452D01*
X115887671Y-102648397D01*
X115954349Y-102627520D01*
X115956560Y-102627500D01*
X117043440Y-102627500D01*
X117110479Y-102647185D01*
X117112329Y-102648397D01*
X117142608Y-102668628D01*
X117142609Y-102668628D01*
X117142610Y-102668629D01*
X117279920Y-102725505D01*
X117425683Y-102754499D01*
X117425687Y-102754500D01*
X117425688Y-102754500D01*
X117574313Y-102754500D01*
X117574314Y-102754499D01*
X117720080Y-102725505D01*
X117857390Y-102668629D01*
X117980966Y-102586059D01*
X118086059Y-102480966D01*
X118146899Y-102389911D01*
X118200509Y-102345108D01*
X118269834Y-102336400D01*
X118332862Y-102366554D01*
X118353098Y-102389907D01*
X118413940Y-102480964D01*
X118413944Y-102480970D01*
X118519028Y-102586054D01*
X118519035Y-102586060D01*
X118642608Y-102668628D01*
X118642609Y-102668628D01*
X118642610Y-102668629D01*
X118779920Y-102725505D01*
X118925683Y-102754499D01*
X118925687Y-102754500D01*
X118925688Y-102754500D01*
X119074313Y-102754500D01*
X119074314Y-102754499D01*
X119220080Y-102725505D01*
X119357390Y-102668629D01*
X119366634Y-102662452D01*
X119387671Y-102648397D01*
X119454349Y-102627520D01*
X119456560Y-102627500D01*
X120543440Y-102627500D01*
X120610479Y-102647185D01*
X120612329Y-102648397D01*
X120642608Y-102668628D01*
X120642609Y-102668628D01*
X120642610Y-102668629D01*
X120779920Y-102725505D01*
X120925683Y-102754499D01*
X120925687Y-102754500D01*
X120925688Y-102754500D01*
X121074313Y-102754500D01*
X121074314Y-102754499D01*
X121220080Y-102725505D01*
X121357390Y-102668629D01*
X121480966Y-102586059D01*
X121586059Y-102480966D01*
X121668629Y-102357390D01*
X121725505Y-102220080D01*
X121754500Y-102074312D01*
X121754500Y-101925688D01*
X121725505Y-101779920D01*
X121668629Y-101642610D01*
X121662505Y-101633445D01*
X121586060Y-101519035D01*
X121586054Y-101519028D01*
X121480971Y-101413945D01*
X121480964Y-101413939D01*
X121357391Y-101331371D01*
X121220080Y-101274495D01*
X121220072Y-101274493D01*
X121074316Y-101245500D01*
X121074312Y-101245500D01*
X120925688Y-101245500D01*
X120925683Y-101245500D01*
X120779927Y-101274493D01*
X120779919Y-101274495D01*
X120642608Y-101331371D01*
X120612329Y-101351603D01*
X120545651Y-101372480D01*
X120543440Y-101372500D01*
X119456560Y-101372500D01*
X119389521Y-101352815D01*
X119387671Y-101351603D01*
X119357391Y-101331371D01*
X119220080Y-101274495D01*
X119220072Y-101274493D01*
X119074316Y-101245500D01*
X119074312Y-101245500D01*
X118925688Y-101245500D01*
X118925683Y-101245500D01*
X118779927Y-101274493D01*
X118779919Y-101274495D01*
X118642608Y-101331371D01*
X118519035Y-101413939D01*
X118519028Y-101413945D01*
X118413945Y-101519028D01*
X118413939Y-101519035D01*
X118353102Y-101610086D01*
X118299490Y-101654892D01*
X118230165Y-101663599D01*
X118167138Y-101633445D01*
X118146898Y-101610086D01*
X118086060Y-101519035D01*
X118086054Y-101519028D01*
X117980971Y-101413945D01*
X117980964Y-101413939D01*
X117857391Y-101331371D01*
X117720080Y-101274495D01*
X117720072Y-101274493D01*
X117574316Y-101245500D01*
X117574312Y-101245500D01*
X117425688Y-101245500D01*
X117425683Y-101245500D01*
X117279927Y-101274493D01*
X117279919Y-101274495D01*
X117142608Y-101331371D01*
X117112329Y-101351603D01*
X117045651Y-101372480D01*
X117043440Y-101372500D01*
X115956560Y-101372500D01*
X115889521Y-101352815D01*
X115887671Y-101351603D01*
X115857391Y-101331371D01*
X115720080Y-101274495D01*
X115720072Y-101274493D01*
X115574316Y-101245500D01*
X115574312Y-101245500D01*
X115425688Y-101245500D01*
X115425683Y-101245500D01*
X115279927Y-101274493D01*
X115279919Y-101274495D01*
X115142608Y-101331371D01*
X115019035Y-101413939D01*
X115019028Y-101413945D01*
X114913945Y-101519028D01*
X114913939Y-101519035D01*
X114831371Y-101642608D01*
X114774495Y-101779919D01*
X114774493Y-101779927D01*
X114745500Y-101925683D01*
X110500500Y-101925683D01*
X110500500Y-98764853D01*
X116084670Y-98764853D01*
X116084670Y-98913486D01*
X116113663Y-99059242D01*
X116113665Y-99059250D01*
X116170541Y-99196561D01*
X116253109Y-99320134D01*
X116253115Y-99320141D01*
X116358198Y-99425224D01*
X116358205Y-99425230D01*
X116481778Y-99507798D01*
X116481779Y-99507798D01*
X116481780Y-99507799D01*
X116619090Y-99564675D01*
X116654805Y-99571779D01*
X116716716Y-99604162D01*
X116718296Y-99605715D01*
X117012589Y-99900008D01*
X117093545Y-99980964D01*
X117099994Y-99987413D01*
X117099996Y-99987414D01*
X117202756Y-100056076D01*
X117202758Y-100056077D01*
X117202767Y-100056083D01*
X117227772Y-100066440D01*
X117250071Y-100075677D01*
X117275136Y-100086059D01*
X117316966Y-100103386D01*
X117438192Y-100127499D01*
X117438196Y-100127500D01*
X117438197Y-100127500D01*
X117561803Y-100127500D01*
X119043440Y-100127500D01*
X119110479Y-100147185D01*
X119112329Y-100148397D01*
X119142608Y-100168628D01*
X119142609Y-100168628D01*
X119142610Y-100168629D01*
X119279920Y-100225505D01*
X119425683Y-100254499D01*
X119425687Y-100254500D01*
X119425688Y-100254500D01*
X119574313Y-100254500D01*
X119574314Y-100254499D01*
X119720080Y-100225505D01*
X119857390Y-100168629D01*
X119980966Y-100086059D01*
X120086059Y-99980966D01*
X120168629Y-99857390D01*
X120225505Y-99720080D01*
X120254500Y-99574312D01*
X120254500Y-99425688D01*
X120225505Y-99279920D01*
X120168629Y-99142610D01*
X120112930Y-99059250D01*
X120086060Y-99019035D01*
X120086054Y-99019028D01*
X119980971Y-98913945D01*
X119980964Y-98913939D01*
X119857391Y-98831371D01*
X119720080Y-98774495D01*
X119720072Y-98774493D01*
X119574316Y-98745500D01*
X119574312Y-98745500D01*
X119425688Y-98745500D01*
X119425683Y-98745500D01*
X119279927Y-98774493D01*
X119279919Y-98774495D01*
X119142608Y-98831371D01*
X119112329Y-98851603D01*
X119045651Y-98872480D01*
X119043440Y-98872500D01*
X117811281Y-98872500D01*
X117781840Y-98863855D01*
X117751854Y-98857332D01*
X117746838Y-98853577D01*
X117744242Y-98852815D01*
X117723600Y-98836181D01*
X117605715Y-98718296D01*
X117572230Y-98656973D01*
X117571792Y-98654872D01*
X117564675Y-98619090D01*
X117507799Y-98481780D01*
X117425229Y-98358204D01*
X117425224Y-98358198D01*
X117320141Y-98253115D01*
X117320134Y-98253109D01*
X117196561Y-98170541D01*
X117059250Y-98113665D01*
X117059242Y-98113663D01*
X116913486Y-98084670D01*
X116913482Y-98084670D01*
X116764858Y-98084670D01*
X116764853Y-98084670D01*
X116619097Y-98113663D01*
X116619089Y-98113665D01*
X116481778Y-98170541D01*
X116358205Y-98253109D01*
X116358198Y-98253115D01*
X116253115Y-98358198D01*
X116253109Y-98358205D01*
X116170541Y-98481778D01*
X116113665Y-98619089D01*
X116113663Y-98619097D01*
X116084670Y-98764853D01*
X110500500Y-98764853D01*
X110500500Y-92925683D01*
X113745500Y-92925683D01*
X113745500Y-93074316D01*
X113774493Y-93220072D01*
X113774495Y-93220080D01*
X113831371Y-93357391D01*
X113913939Y-93480964D01*
X113913945Y-93480971D01*
X114019028Y-93586054D01*
X114019035Y-93586060D01*
X114142608Y-93668628D01*
X114142609Y-93668628D01*
X114142610Y-93668629D01*
X114279920Y-93725505D01*
X114279922Y-93725505D01*
X114279924Y-93725506D01*
X114285742Y-93726663D01*
X114313869Y-93741374D01*
X114342759Y-93754568D01*
X114344614Y-93757455D01*
X114347654Y-93759045D01*
X114363363Y-93786630D01*
X114380533Y-93813346D01*
X114381193Y-93817936D01*
X114382231Y-93819759D01*
X114385556Y-93848281D01*
X114385556Y-94084031D01*
X114365871Y-94151070D01*
X114364659Y-94152921D01*
X114317426Y-94223611D01*
X114260551Y-94360919D01*
X114260549Y-94360927D01*
X114231556Y-94506683D01*
X114231556Y-94655316D01*
X114260549Y-94801072D01*
X114260551Y-94801080D01*
X114317427Y-94938391D01*
X114399995Y-95061964D01*
X114400001Y-95061971D01*
X114505084Y-95167054D01*
X114505091Y-95167060D01*
X114628664Y-95249628D01*
X114628665Y-95249628D01*
X114628666Y-95249629D01*
X114765976Y-95306505D01*
X114911739Y-95335499D01*
X114911743Y-95335500D01*
X114911744Y-95335500D01*
X115060369Y-95335500D01*
X115060370Y-95335499D01*
X115206136Y-95306505D01*
X115343446Y-95249629D01*
X115467022Y-95167059D01*
X115572115Y-95061966D01*
X115654685Y-94938390D01*
X115711561Y-94801080D01*
X115740556Y-94655312D01*
X115740556Y-94506688D01*
X115711561Y-94360920D01*
X115654685Y-94223610D01*
X115607453Y-94152921D01*
X115586576Y-94086243D01*
X115586556Y-94084031D01*
X115586556Y-93575115D01*
X115586557Y-93575102D01*
X115586557Y-93407001D01*
X115586557Y-93406999D01*
X115545633Y-93254271D01*
X115508378Y-93189744D01*
X115466576Y-93117340D01*
X115354772Y-93005536D01*
X115354771Y-93005535D01*
X115350441Y-93001205D01*
X115350430Y-93001195D01*
X115276026Y-92926791D01*
X115242541Y-92865468D01*
X115242105Y-92863380D01*
X115225505Y-92779920D01*
X115168629Y-92642610D01*
X115086059Y-92519034D01*
X115086054Y-92519028D01*
X114980971Y-92413945D01*
X114980964Y-92413939D01*
X114857391Y-92331371D01*
X114720080Y-92274495D01*
X114720072Y-92274493D01*
X114574316Y-92245500D01*
X114574312Y-92245500D01*
X114425688Y-92245500D01*
X114425683Y-92245500D01*
X114279927Y-92274493D01*
X114279919Y-92274495D01*
X114142608Y-92331371D01*
X114019035Y-92413939D01*
X114019028Y-92413945D01*
X113913945Y-92519028D01*
X113913939Y-92519035D01*
X113831371Y-92642608D01*
X113774495Y-92779919D01*
X113774493Y-92779927D01*
X113745500Y-92925683D01*
X110500500Y-92925683D01*
X110500500Y-87004427D01*
X110500816Y-86995581D01*
X110515130Y-86795443D01*
X110515131Y-86795434D01*
X110517646Y-86777938D01*
X110559356Y-86586199D01*
X110564333Y-86569248D01*
X110632911Y-86385385D01*
X110640259Y-86369298D01*
X110702815Y-86254734D01*
X110734291Y-86197089D01*
X110743845Y-86182221D01*
X110861448Y-86025123D01*
X110873020Y-86011769D01*
X111011769Y-85873020D01*
X111025123Y-85861448D01*
X111182221Y-85743845D01*
X111197089Y-85734291D01*
X111369298Y-85640258D01*
X111385385Y-85632911D01*
X111569248Y-85564333D01*
X111586199Y-85559356D01*
X111777938Y-85517646D01*
X111795436Y-85515130D01*
X111995582Y-85500816D01*
X112004428Y-85500500D01*
X112065892Y-85500500D01*
X122934108Y-85500500D01*
X122995572Y-85500500D01*
X123004418Y-85500816D01*
G37*
%TD.AperFunction*%
%TD*%
M02*
