%TF.GenerationSoftware,KiCad,Pcbnew,9.0.5*%
%TF.CreationDate,2026-01-29T03:49:22-08:00*%
%TF.ProjectId,PCB Design Lab,50434220-4465-4736-9967-6e204c61622e,rev?*%
%TF.SameCoordinates,Original*%
%TF.FileFunction,Soldermask,Top*%
%TF.FilePolarity,Negative*%
%FSLAX46Y46*%
G04 Gerber Fmt 4.6, Leading zero omitted, Abs format (unit mm)*
G04 Created by KiCad (PCBNEW 9.0.5) date 2026-01-29 03:49:22*
%MOMM*%
%LPD*%
G01*
G04 APERTURE LIST*
G04 Aperture macros list*
%AMRoundRect*
0 Rectangle with rounded corners*
0 $1 Rounding radius*
0 $2 $3 $4 $5 $6 $7 $8 $9 X,Y pos of 4 corners*
0 Add a 4 corners polygon primitive as box body*
4,1,4,$2,$3,$4,$5,$6,$7,$8,$9,$2,$3,0*
0 Add four circle primitives for the rounded corners*
1,1,$1+$1,$2,$3*
1,1,$1+$1,$4,$5*
1,1,$1+$1,$6,$7*
1,1,$1+$1,$8,$9*
0 Add four rect primitives between the rounded corners*
20,1,$1+$1,$2,$3,$4,$5,0*
20,1,$1+$1,$4,$5,$6,$7,0*
20,1,$1+$1,$6,$7,$8,$9,0*
20,1,$1+$1,$8,$9,$2,$3,0*%
G04 Aperture macros list end*
%ADD10C,0.010000*%
%ADD11RoundRect,0.098000X0.294000X-0.609000X0.294000X0.609000X-0.294000X0.609000X-0.294000X-0.609000X0*%
%ADD12RoundRect,0.155000X-0.212500X-0.155000X0.212500X-0.155000X0.212500X0.155000X-0.212500X0.155000X0*%
%ADD13RoundRect,0.160000X-0.197500X-0.160000X0.197500X-0.160000X0.197500X0.160000X-0.197500X0.160000X0*%
%ADD14RoundRect,0.160000X0.160000X-0.197500X0.160000X0.197500X-0.160000X0.197500X-0.160000X-0.197500X0*%
%ADD15RoundRect,0.155000X0.155000X-0.212500X0.155000X0.212500X-0.155000X0.212500X-0.155000X-0.212500X0*%
%ADD16R,1.700000X1.700000*%
%ADD17C,1.700000*%
%ADD18RoundRect,0.160000X0.160000X-0.222500X0.160000X0.222500X-0.160000X0.222500X-0.160000X-0.222500X0*%
%ADD19RoundRect,0.160000X-0.160000X0.197500X-0.160000X-0.197500X0.160000X-0.197500X0.160000X0.197500X0*%
G04 APERTURE END LIST*
D10*
%TO.C,U2*%
X116695000Y-96385000D02*
X115985000Y-96385000D01*
X115985000Y-95935000D01*
X116695000Y-95935000D01*
X116695000Y-96385000D01*
G36*
X116695000Y-96385000D02*
G01*
X115985000Y-96385000D01*
X115985000Y-95935000D01*
X116695000Y-95935000D01*
X116695000Y-96385000D01*
G37*
X116695000Y-96885000D02*
X115985000Y-96885000D01*
X115985000Y-96435000D01*
X116695000Y-96435000D01*
X116695000Y-96885000D01*
G36*
X116695000Y-96885000D02*
G01*
X115985000Y-96885000D01*
X115985000Y-96435000D01*
X116695000Y-96435000D01*
X116695000Y-96885000D01*
G37*
X116695000Y-97385000D02*
X115985000Y-97385000D01*
X115985000Y-96935000D01*
X116695000Y-96935000D01*
X116695000Y-97385000D01*
G36*
X116695000Y-97385000D02*
G01*
X115985000Y-97385000D01*
X115985000Y-96935000D01*
X116695000Y-96935000D01*
X116695000Y-97385000D01*
G37*
X116695000Y-97885000D02*
X115985000Y-97885000D01*
X115985000Y-97435000D01*
X116695000Y-97435000D01*
X116695000Y-97885000D01*
G36*
X116695000Y-97885000D02*
G01*
X115985000Y-97885000D01*
X115985000Y-97435000D01*
X116695000Y-97435000D01*
X116695000Y-97885000D01*
G37*
X117225000Y-98180000D02*
X116775000Y-98180000D01*
X116775000Y-97470000D01*
X117225000Y-97470000D01*
X117225000Y-98180000D01*
G36*
X117225000Y-98180000D02*
G01*
X116775000Y-98180000D01*
X116775000Y-97470000D01*
X117225000Y-97470000D01*
X117225000Y-98180000D01*
G37*
X117225000Y-96350000D02*
X116775000Y-96350000D01*
X116775000Y-95640000D01*
X117225000Y-95640000D01*
X117225000Y-96350000D01*
G36*
X117225000Y-96350000D02*
G01*
X116775000Y-96350000D01*
X116775000Y-95640000D01*
X117225000Y-95640000D01*
X117225000Y-96350000D01*
G37*
X117725000Y-98180000D02*
X117275000Y-98180000D01*
X117275000Y-97470000D01*
X117725000Y-97470000D01*
X117725000Y-98180000D01*
G36*
X117725000Y-98180000D02*
G01*
X117275000Y-98180000D01*
X117275000Y-97470000D01*
X117725000Y-97470000D01*
X117725000Y-98180000D01*
G37*
X117725000Y-96350000D02*
X117275000Y-96350000D01*
X117275000Y-95640000D01*
X117725000Y-95640000D01*
X117725000Y-96350000D01*
G36*
X117725000Y-96350000D02*
G01*
X117275000Y-96350000D01*
X117275000Y-95640000D01*
X117725000Y-95640000D01*
X117725000Y-96350000D01*
G37*
X118225000Y-98180000D02*
X117775000Y-98180000D01*
X117775000Y-97470000D01*
X118225000Y-97470000D01*
X118225000Y-98180000D01*
G36*
X118225000Y-98180000D02*
G01*
X117775000Y-98180000D01*
X117775000Y-97470000D01*
X118225000Y-97470000D01*
X118225000Y-98180000D01*
G37*
X118225000Y-96350000D02*
X117775000Y-96350000D01*
X117775000Y-95640000D01*
X118225000Y-95640000D01*
X118225000Y-96350000D01*
G36*
X118225000Y-96350000D02*
G01*
X117775000Y-96350000D01*
X117775000Y-95640000D01*
X118225000Y-95640000D01*
X118225000Y-96350000D01*
G37*
X119015000Y-96385000D02*
X118305000Y-96385000D01*
X118305000Y-95935000D01*
X119015000Y-95935000D01*
X119015000Y-96385000D01*
G36*
X119015000Y-96385000D02*
G01*
X118305000Y-96385000D01*
X118305000Y-95935000D01*
X119015000Y-95935000D01*
X119015000Y-96385000D01*
G37*
X119015000Y-96885000D02*
X118305000Y-96885000D01*
X118305000Y-96435000D01*
X119015000Y-96435000D01*
X119015000Y-96885000D01*
G36*
X119015000Y-96885000D02*
G01*
X118305000Y-96885000D01*
X118305000Y-96435000D01*
X119015000Y-96435000D01*
X119015000Y-96885000D01*
G37*
X119015000Y-97385000D02*
X118305000Y-97385000D01*
X118305000Y-96935000D01*
X119015000Y-96935000D01*
X119015000Y-97385000D01*
G36*
X119015000Y-97385000D02*
G01*
X118305000Y-97385000D01*
X118305000Y-96935000D01*
X119015000Y-96935000D01*
X119015000Y-97385000D01*
G37*
X119015000Y-97885000D02*
X118305000Y-97885000D01*
X118305000Y-97435000D01*
X119015000Y-97435000D01*
X119015000Y-97885000D01*
G36*
X119015000Y-97885000D02*
G01*
X118305000Y-97885000D01*
X118305000Y-97435000D01*
X119015000Y-97435000D01*
X119015000Y-97885000D01*
G37*
%TD*%
D11*
%TO.C,U1*%
X116100000Y-93000000D03*
X117050000Y-93000000D03*
X118000000Y-93000000D03*
X118000000Y-90490000D03*
X117050000Y-90490000D03*
X116100000Y-90490000D03*
%TD*%
D12*
%TO.C,C1*%
X113432500Y-88000000D03*
X114567500Y-88000000D03*
%TD*%
D13*
%TO.C,R3*%
X118402500Y-100500000D03*
X119597500Y-100500000D03*
%TD*%
D14*
%TO.C,R1*%
X122000000Y-88097500D03*
X122000000Y-86902500D03*
%TD*%
D15*
%TO.C,C2*%
X122000000Y-101067500D03*
X122000000Y-99932500D03*
%TD*%
D16*
%TO.C,J1*%
X113960000Y-104500000D03*
D17*
X116500000Y-104500000D03*
X119040000Y-104500000D03*
X121580000Y-104500000D03*
%TD*%
D15*
%TO.C,C6*%
X111500000Y-92635000D03*
X111500000Y-91500000D03*
%TD*%
%TO.C,C5*%
X113500000Y-92500000D03*
X113500000Y-91365000D03*
%TD*%
D18*
%TO.C,D1*%
X122000000Y-97145000D03*
X122000000Y-96000000D03*
%TD*%
D13*
%TO.C,R2*%
X116902500Y-88000000D03*
X118097500Y-88000000D03*
%TD*%
D15*
%TO.C,C4*%
X120000000Y-90567500D03*
X120000000Y-89432500D03*
%TD*%
D19*
%TO.C,R5*%
X122000000Y-91902500D03*
X122000000Y-93097500D03*
%TD*%
D15*
%TO.C,C3*%
X112500000Y-101135000D03*
X112500000Y-100000000D03*
%TD*%
D13*
%TO.C,R4*%
X115305000Y-100500000D03*
X116500000Y-100500000D03*
%TD*%
M02*
